{
	"asset":{
		"generator":"Khronos glTF Blender I/O v3.6.27",
		"version":"2.0"
	},
	"scene":0,
	"scenes":[
		{
			"name":"Scene",
			"nodes":[
				5
			]
		}
	],
	"nodes":[
		{
			"name":"Move_bone",
			"translation":[
				-0.5011521577835083,
				0.011232316493988037,
				0.4990467429161072
			]
		},
		{
			"children":[
				0
			],
			"name":"Root"
		},
		{
			"mesh":0,
			"name":"Main_cub",
			"skin":0
		},
		{
			"mesh":1,
			"name":"Move_Line",
			"skin":0
		},
		{
			"mesh":2,
			"name":"Words",
			"skin":0
		},
		{
			"children":[
				2,
				3,
				4,
				1
			],
			"name":"Armature",
			"scale":[
				0.18247932195663452,
				0.18247932195663452,
				0.18247932195663452
			]
		}
	],
	"animations":[
		{
			"channels":[
				{
					"sampler":0,
					"target":{
						"node":1,
						"path":"translation"
					}
				},
				{
					"sampler":1,
					"target":{
						"node":1,
						"path":"rotation"
					}
				},
				{
					"sampler":2,
					"target":{
						"node":1,
						"path":"scale"
					}
				},
				{
					"sampler":3,
					"target":{
						"node":0,
						"path":"translation"
					}
				},
				{
					"sampler":4,
					"target":{
						"node":0,
						"path":"rotation"
					}
				},
				{
					"sampler":5,
					"target":{
						"node":0,
						"path":"scale"
					}
				}
			],
			"name":"A_IdleAB1",
			"samplers":[
				{
					"input":31,
					"interpolation":"STEP",
					"output":32
				},
				{
					"input":31,
					"interpolation":"STEP",
					"output":33
				},
				{
					"input":31,
					"interpolation":"STEP",
					"output":34
				},
				{
					"input":31,
					"interpolation":"STEP",
					"output":35
				},
				{
					"input":31,
					"interpolation":"STEP",
					"output":36
				},
				{
					"input":31,
					"interpolation":"STEP",
					"output":37
				}
			]
		},
		{
			"channels":[
				{
					"sampler":0,
					"target":{
						"node":1,
						"path":"translation"
					}
				},
				{
					"sampler":1,
					"target":{
						"node":1,
						"path":"rotation"
					}
				},
				{
					"sampler":2,
					"target":{
						"node":1,
						"path":"scale"
					}
				},
				{
					"sampler":3,
					"target":{
						"node":0,
						"path":"translation"
					}
				},
				{
					"sampler":4,
					"target":{
						"node":0,
						"path":"rotation"
					}
				},
				{
					"sampler":5,
					"target":{
						"node":0,
						"path":"scale"
					}
				}
			],
			"name":"A_idleDC1",
			"samplers":[
				{
					"input":31,
					"interpolation":"STEP",
					"output":38
				},
				{
					"input":31,
					"interpolation":"STEP",
					"output":39
				},
				{
					"input":31,
					"interpolation":"STEP",
					"output":40
				},
				{
					"input":31,
					"interpolation":"STEP",
					"output":41
				},
				{
					"input":31,
					"interpolation":"STEP",
					"output":42
				},
				{
					"input":31,
					"interpolation":"STEP",
					"output":43
				}
			]
		},
		{
			"channels":[
				{
					"sampler":0,
					"target":{
						"node":1,
						"path":"translation"
					}
				},
				{
					"sampler":1,
					"target":{
						"node":1,
						"path":"rotation"
					}
				},
				{
					"sampler":2,
					"target":{
						"node":1,
						"path":"scale"
					}
				},
				{
					"sampler":3,
					"target":{
						"node":0,
						"path":"translation"
					}
				},
				{
					"sampler":4,
					"target":{
						"node":0,
						"path":"rotation"
					}
				},
				{
					"sampler":5,
					"target":{
						"node":0,
						"path":"scale"
					}
				}
			],
			"name":"A_MoveAB1toDC1",
			"samplers":[
				{
					"input":31,
					"interpolation":"STEP",
					"output":44
				},
				{
					"input":31,
					"interpolation":"STEP",
					"output":45
				},
				{
					"input":31,
					"interpolation":"STEP",
					"output":46
				},
				{
					"input":47,
					"interpolation":"LINEAR",
					"output":48
				},
				{
					"input":31,
					"interpolation":"STEP",
					"output":49
				},
				{
					"input":31,
					"interpolation":"STEP",
					"output":50
				}
			]
		}
	],
	"materials":[
		{
			"doubleSided":true,
			"name":"\u041c\u0430\u0442\u0435\u0440\u0438\u0430\u043b",
			"pbrMetallicRoughness":{
				"baseColorFactor":[
					0.9591231942176819,
					0.23784239590168,
					0,
					1
				],
				"metallicFactor":0,
				"roughnessFactor":0.5
			}
		},
		{
			"doubleSided":true,
			"name":"\u0422\u043e\u0447\u043a\u0438",
			"pbrMetallicRoughness":{
				"baseColorFactor":[
					0.8000000715255737,
					0.002099984558299184,
					0,
					1
				],
				"metallicFactor":0,
				"roughnessFactor":0.5
			}
		},
		{
			"doubleSided":true,
			"name":"\u041c\u0430\u0442\u0435\u0440\u0438\u0430\u043b.002",
			"pbrMetallicRoughness":{
				"baseColorFactor":[
					0.07746630907058716,
					0.06815124303102493,
					0.8000000715255737,
					1
				],
				"metallicFactor":0,
				"roughnessFactor":0.5
			}
		},
		{
			"doubleSided":true,
			"name":"\u041c\u0430\u0442\u0435\u0440\u0438\u0430\u043b.001",
			"pbrMetallicRoughness":{
				"baseColorFactor":[
					0.8000000715255737,
					0.19490772485733032,
					0.1326797753572464,
					1
				],
				"metallicFactor":0,
				"roughnessFactor":0.5
			}
		}
	],
	"meshes":[
		{
			"name":"\u041a\u0443\u0431.001",
			"primitives":[
				{
					"attributes":{
						"POSITION":0,
						"NORMAL":1,
						"TEXCOORD_0":2,
						"JOINTS_0":3,
						"WEIGHTS_0":4
					},
					"indices":5,
					"material":0
				},
				{
					"attributes":{
						"POSITION":6,
						"NORMAL":7,
						"TEXCOORD_0":8,
						"JOINTS_0":9,
						"WEIGHTS_0":10
					},
					"indices":11,
					"material":1
				},
				{
					"attributes":{
						"POSITION":12,
						"NORMAL":13,
						"TEXCOORD_0":14,
						"JOINTS_0":15,
						"WEIGHTS_0":16
					},
					"indices":17,
					"material":2
				}
			]
		},
		{
			"name":"\u041a\u0443\u0431.009",
			"primitives":[
				{
					"attributes":{
						"POSITION":19,
						"NORMAL":20,
						"TEXCOORD_0":21,
						"JOINTS_0":22,
						"WEIGHTS_0":23
					},
					"indices":24,
					"material":2
				}
			]
		},
		{
			"name":"\u0422\u0435\u043a\u0441\u0442",
			"primitives":[
				{
					"attributes":{
						"POSITION":25,
						"NORMAL":26,
						"TEXCOORD_0":27,
						"JOINTS_0":28,
						"WEIGHTS_0":29
					},
					"indices":30,
					"material":3
				}
			]
		}
	],
	"skins":[
		{
			"inverseBindMatrices":18,
			"joints":[
				1,
				0
			],
			"name":"Armature"
		}
	],
	"accessors":[
		{
			"bufferView":0,
			"componentType":5126,
			"count":212,
			"max":[
				0.09512442350387573,
				0.18530099093914032,
				0.09248865395784378
			],
			"min":[
				-0.09512442350387573,
				0,
				-0.09480073302984238
			],
			"type":"VEC3"
		},
		{
			"bufferView":1,
			"componentType":5126,
			"count":212,
			"type":"VEC3"
		},
		{
			"bufferView":2,
			"componentType":5126,
			"count":212,
			"type":"VEC2"
		},
		{
			"bufferView":3,
			"componentType":5121,
			"count":212,
			"type":"VEC4"
		},
		{
			"bufferView":4,
			"componentType":5126,
			"count":212,
			"type":"VEC4"
		},
		{
			"bufferView":5,
			"componentType":5123,
			"count":450,
			"type":"SCALAR"
		},
		{
			"bufferView":6,
			"componentType":5126,
			"count":244,
			"max":[
				0.09512442350387573,
				0.18761307001113892,
				0.09480074048042297
			],
			"min":[
				-0.09512442350387573,
				-0.002312078606337309,
				-0.09480073302984238
			],
			"type":"VEC3"
		},
		{
			"bufferView":7,
			"componentType":5126,
			"count":244,
			"type":"VEC3"
		},
		{
			"bufferView":8,
			"componentType":5126,
			"count":244,
			"type":"VEC2"
		},
		{
			"bufferView":9,
			"componentType":5121,
			"count":244,
			"type":"VEC4"
		},
		{
			"bufferView":10,
			"componentType":5126,
			"count":244,
			"type":"VEC4"
		},
		{
			"bufferView":11,
			"componentType":5123,
			"count":408,
			"type":"SCALAR"
		},
		{
			"bufferView":12,
			"componentType":5126,
			"count":20,
			"max":[
				0.08893139660358429,
				0.0038809359539300203,
				0.08893139660358429
			],
			"min":[
				-0.08893139660358429,
				0,
				-0.08893139660358429
			],
			"type":"VEC3"
		},
		{
			"bufferView":13,
			"componentType":5126,
			"count":20,
			"type":"VEC3"
		},
		{
			"bufferView":14,
			"componentType":5126,
			"count":20,
			"type":"VEC2"
		},
		{
			"bufferView":15,
			"componentType":5121,
			"count":20,
			"type":"VEC4"
		},
		{
			"bufferView":16,
			"componentType":5126,
			"count":20,
			"type":"VEC4"
		},
		{
			"bufferView":17,
			"componentType":5123,
			"count":30,
			"type":"SCALAR"
		},
		{
			"bufferView":18,
			"componentType":5126,
			"count":2,
			"type":"MAT4"
		},
		{
			"bufferView":19,
			"componentType":5126,
			"count":36,
			"max":[
				-0.08893139660358429,
				0.18174374103546143,
				0.08893139660358429
			],
			"min":[
				-0.09281236678361893,
				0.0038809359539300203,
				-0.08893139660358429
			],
			"type":"VEC3"
		},
		{
			"bufferView":20,
			"componentType":5126,
			"count":36,
			"type":"VEC3"
		},
		{
			"bufferView":21,
			"componentType":5126,
			"count":36,
			"type":"VEC2"
		},
		{
			"bufferView":22,
			"componentType":5121,
			"count":36,
			"type":"VEC4"
		},
		{
			"bufferView":23,
			"componentType":5126,
			"count":36,
			"type":"VEC4"
		},
		{
			"bufferView":24,
			"componentType":5123,
			"count":60,
			"type":"SCALAR"
		},
		{
			"bufferView":25,
			"componentType":5126,
			"count":3358,
			"max":[
				0.14315788447856903,
				0.2081030011177063,
				0.09373901784420013
			],
			"min":[
				-0.1344679296016693,
				0.0016203148989006877,
				-0.09071002155542374
			],
			"type":"VEC3"
		},
		{
			"bufferView":26,
			"componentType":5126,
			"count":3358,
			"type":"VEC3"
		},
		{
			"bufferView":27,
			"componentType":5126,
			"count":3358,
			"type":"VEC2"
		},
		{
			"bufferView":28,
			"componentType":5121,
			"count":3358,
			"type":"VEC4"
		},
		{
			"bufferView":29,
			"componentType":5126,
			"count":3358,
			"type":"VEC4"
		},
		{
			"bufferView":30,
			"componentType":5123,
			"count":6600,
			"type":"SCALAR"
		},
		{
			"bufferView":31,
			"componentType":5126,
			"count":2,
			"max":[
				0.8333333333333334
			],
			"min":[
				0.041666666666666664
			],
			"type":"SCALAR"
		},
		{
			"bufferView":32,
			"componentType":5126,
			"count":2,
			"type":"VEC3"
		},
		{
			"bufferView":33,
			"componentType":5126,
			"count":2,
			"type":"VEC4"
		},
		{
			"bufferView":34,
			"componentType":5126,
			"count":2,
			"type":"VEC3"
		},
		{
			"bufferView":35,
			"componentType":5126,
			"count":2,
			"type":"VEC3"
		},
		{
			"bufferView":36,
			"componentType":5126,
			"count":2,
			"type":"VEC4"
		},
		{
			"bufferView":37,
			"componentType":5126,
			"count":2,
			"type":"VEC3"
		},
		{
			"bufferView":38,
			"componentType":5126,
			"count":2,
			"type":"VEC3"
		},
		{
			"bufferView":39,
			"componentType":5126,
			"count":2,
			"type":"VEC4"
		},
		{
			"bufferView":40,
			"componentType":5126,
			"count":2,
			"type":"VEC3"
		},
		{
			"bufferView":41,
			"componentType":5126,
			"count":2,
			"type":"VEC3"
		},
		{
			"bufferView":42,
			"componentType":5126,
			"count":2,
			"type":"VEC4"
		},
		{
			"bufferView":43,
			"componentType":5126,
			"count":2,
			"type":"VEC3"
		},
		{
			"bufferView":44,
			"componentType":5126,
			"count":2,
			"type":"VEC3"
		},
		{
			"bufferView":45,
			"componentType":5126,
			"count":2,
			"type":"VEC4"
		},
		{
			"bufferView":46,
			"componentType":5126,
			"count":2,
			"type":"VEC3"
		},
		{
			"bufferView":47,
			"componentType":5126,
			"count":20,
			"max":[
				0.8333333333333334
			],
			"min":[
				0.041666666666666664
			],
			"type":"SCALAR"
		},
		{
			"bufferView":48,
			"componentType":5126,
			"count":20,
			"type":"VEC3"
		},
		{
			"bufferView":49,
			"componentType":5126,
			"count":2,
			"type":"VEC4"
		},
		{
			"bufferView":50,
			"componentType":5126,
			"count":2,
			"type":"VEC3"
		}
	],
	"bufferViews":[
		{
			"buffer":0,
			"byteLength":2544,
			"byteOffset":0,
			"target":34962
		},
		{
			"buffer":0,
			"byteLength":2544,
			"byteOffset":2544,
			"target":34962
		},
		{
			"buffer":0,
			"byteLength":1696,
			"byteOffset":5088,
			"target":34962
		},
		{
			"buffer":0,
			"byteLength":848,
			"byteOffset":6784,
			"target":34962
		},
		{
			"buffer":0,
			"byteLength":3392,
			"byteOffset":7632,
			"target":34962
		},
		{
			"buffer":0,
			"byteLength":900,
			"byteOffset":11024,
			"target":34963
		},
		{
			"buffer":0,
			"byteLength":2928,
			"byteOffset":11924,
			"target":34962
		},
		{
			"buffer":0,
			"byteLength":2928,
			"byteOffset":14852,
			"target":34962
		},
		{
			"buffer":0,
			"byteLength":1952,
			"byteOffset":17780,
			"target":34962
		},
		{
			"buffer":0,
			"byteLength":976,
			"byteOffset":19732,
			"target":34962
		},
		{
			"buffer":0,
			"byteLength":3904,
			"byteOffset":20708,
			"target":34962
		},
		{
			"buffer":0,
			"byteLength":816,
			"byteOffset":24612,
			"target":34963
		},
		{
			"buffer":0,
			"byteLength":240,
			"byteOffset":25428,
			"target":34962
		},
		{
			"buffer":0,
			"byteLength":240,
			"byteOffset":25668,
			"target":34962
		},
		{
			"buffer":0,
			"byteLength":160,
			"byteOffset":25908,
			"target":34962
		},
		{
			"buffer":0,
			"byteLength":80,
			"byteOffset":26068,
			"target":34962
		},
		{
			"buffer":0,
			"byteLength":320,
			"byteOffset":26148,
			"target":34962
		},
		{
			"buffer":0,
			"byteLength":60,
			"byteOffset":26468,
			"target":34963
		},
		{
			"buffer":0,
			"byteLength":128,
			"byteOffset":26528
		},
		{
			"buffer":0,
			"byteLength":432,
			"byteOffset":26656,
			"target":34962
		},
		{
			"buffer":0,
			"byteLength":432,
			"byteOffset":27088,
			"target":34962
		},
		{
			"buffer":0,
			"byteLength":288,
			"byteOffset":27520,
			"target":34962
		},
		{
			"buffer":0,
			"byteLength":144,
			"byteOffset":27808,
			"target":34962
		},
		{
			"buffer":0,
			"byteLength":576,
			"byteOffset":27952,
			"target":34962
		},
		{
			"buffer":0,
			"byteLength":120,
			"byteOffset":28528,
			"target":34963
		},
		{
			"buffer":0,
			"byteLength":40296,
			"byteOffset":28648,
			"target":34962
		},
		{
			"buffer":0,
			"byteLength":40296,
			"byteOffset":68944,
			"target":34962
		},
		{
			"buffer":0,
			"byteLength":26864,
			"byteOffset":109240,
			"target":34962
		},
		{
			"buffer":0,
			"byteLength":13432,
			"byteOffset":136104,
			"target":34962
		},
		{
			"buffer":0,
			"byteLength":53728,
			"byteOffset":149536,
			"target":34962
		},
		{
			"buffer":0,
			"byteLength":13200,
			"byteOffset":203264,
			"target":34963
		},
		{
			"buffer":0,
			"byteLength":8,
			"byteOffset":216464
		},
		{
			"buffer":0,
			"byteLength":24,
			"byteOffset":216472
		},
		{
			"buffer":0,
			"byteLength":32,
			"byteOffset":216496
		},
		{
			"buffer":0,
			"byteLength":24,
			"byteOffset":216528
		},
		{
			"buffer":0,
			"byteLength":24,
			"byteOffset":216552
		},
		{
			"buffer":0,
			"byteLength":32,
			"byteOffset":216576
		},
		{
			"buffer":0,
			"byteLength":24,
			"byteOffset":216608
		},
		{
			"buffer":0,
			"byteLength":24,
			"byteOffset":216632
		},
		{
			"buffer":0,
			"byteLength":32,
			"byteOffset":216656
		},
		{
			"buffer":0,
			"byteLength":24,
			"byteOffset":216688
		},
		{
			"buffer":0,
			"byteLength":24,
			"byteOffset":216712
		},
		{
			"buffer":0,
			"byteLength":32,
			"byteOffset":216736
		},
		{
			"buffer":0,
			"byteLength":24,
			"byteOffset":216768
		},
		{
			"buffer":0,
			"byteLength":24,
			"byteOffset":216792
		},
		{
			"buffer":0,
			"byteLength":32,
			"byteOffset":216816
		},
		{
			"buffer":0,
			"byteLength":24,
			"byteOffset":216848
		},
		{
			"buffer":0,
			"byteLength":80,
			"byteOffset":216872
		},
		{
			"buffer":0,
			"byteLength":240,
			"byteOffset":216952
		},
		{
			"buffer":0,
			"byteLength":32,
			"byteOffset":217192
		},
		{
			"buffer":0,
			"byteLength":24,
			"byteOffset":217224
		}
	],
	"buffers":[
		{
			"byteLength":217248,
			"uri":"data:application/octet-stream;base64,"
		}
	]
}
